# This file uses centimeters as units for non-parametric coordinates.

mtllib Mask.mtl
g default
v 375.607544 74.712921 0.000000
v 353.814697 146.554794 0.000000
v 318.424896 212.764725 0.000000
v 270.797974 270.797974 0.000000
v 212.764893 318.424896 0.000000
v 146.554947 353.814819 0.000000
v 74.713165 375.608185 0.000000
v 0.000064 382.966431 0.000000
v -74.712997 375.608185 0.000000
v -146.554794 353.815155 0.000000
v -212.764893 318.425201 0.000000
v -270.798096 270.798187 0.000000
v -318.425049 212.765060 0.000000
v -353.815155 146.555328 0.000000
v -375.608398 74.713280 0.000000
v -382.966614 0.000255 0.000000
v -375.608429 -74.712814 0.000000
v -353.815277 -146.554764 0.000000
v -318.425385 -212.764603 0.000000
v -270.798248 -270.797974 0.000000
v -212.765060 -318.425049 0.000000
v -146.555328 -353.814941 0.000000
v -74.713280 -375.608185 0.000000
v -0.000191 -382.966431 0.000000
v 74.712921 -375.608185 0.000000
v 146.554794 -353.815155 0.000000
v 212.764893 -318.425171 0.000000
v 270.798096 -270.798096 0.000000
v 318.425171 -212.764923 0.000000
v 353.815155 -146.554947 0.000000
v 375.608398 -74.712997 0.000000
v 382.966614 0.000127 0.000000
v 0.490392 0.097545 0.000000
v 0.461939 0.191342 0.000000
v 0.415734 0.277785 0.000000
v 0.353553 0.353553 0.000000
v 0.277785 0.415734 0.000000
v 0.191342 0.461939 0.000000
v 0.097545 0.490392 0.000000
v 0.000000 0.500000 0.000000
v -0.097545 0.490392 0.000000
v -0.191342 0.461940 0.000000
v -0.277785 0.415735 0.000000
v -0.353553 0.353553 0.000000
v -0.415735 0.277785 0.000000
v -0.461940 0.191342 0.000000
v -0.490393 0.097545 0.000000
v -0.500000 0.000000 0.000000
v -0.490393 -0.097545 0.000000
v -0.461940 -0.191341 0.000000
v -0.415735 -0.277785 0.000000
v -0.353554 -0.353553 0.000000
v -0.277785 -0.415734 0.000000
v -0.191342 -0.461939 0.000000
v -0.097545 -0.490392 0.000000
v 0.000000 -0.500000 0.000000
v 0.097545 -0.490392 0.000000
v 0.191341 -0.461939 0.000000
v 0.277785 -0.415735 0.000000
v 0.353553 -0.353553 0.000000
v 0.415734 -0.277785 0.000000
v 0.461939 -0.191341 0.000000
v 0.490392 -0.097545 0.000000
v 0.500000 0.000000 0.000000
vt 0.653248 0.874233
vt 0.644356 0.903544
vt 0.572178 0.873647
vt 0.576624 0.858991
vt 0.629917 0.930558
vt 0.564959 0.887154
vt 0.610485 0.954235
vt 0.555243 0.898993
vt 0.586808 0.973667
vt 0.543404 0.908709
vt 0.559794 0.988106
vt 0.529897 0.915928
vt 0.530483 0.996998
vt 0.515241 0.920374
vt 0.500000 1.000000
vt 0.500000 0.921875
vt 0.469517 0.996998
vt 0.484759 0.920374
vt 0.440206 0.988106
vt 0.470103 0.915928
vt 0.413192 0.973667
vt 0.456596 0.908709
vt 0.389515 0.954235
vt 0.444757 0.898993
vt 0.370083 0.930558
vt 0.435041 0.887154
vt 0.355644 0.903544
vt 0.427822 0.873647
vt 0.346752 0.874233
vt 0.423376 0.858991
vt 0.343750 0.843750
vt 0.421875 0.843750
vt 0.346752 0.813267
vt 0.423376 0.828509
vt 0.355644 0.783956
vt 0.427822 0.813853
vt 0.370083 0.756942
vt 0.435041 0.800346
vt 0.389515 0.733265
vt 0.444757 0.788507
vt 0.413192 0.713833
vt 0.456596 0.778791
vt 0.440206 0.699394
vt 0.470103 0.771572
vt 0.469517 0.690502
vt 0.484759 0.767126
vt 0.500000 0.687500
vt 0.500000 0.765625
vt 0.530483 0.690502
vt 0.515241 0.767126
vt 0.559794 0.699394
vt 0.529897 0.771572
vt 0.586808 0.713833
vt 0.543404 0.778792
vt 0.610485 0.733265
vt 0.555243 0.788507
vt 0.629917 0.756942
vt 0.564959 0.800346
vt 0.644356 0.783956
vt 0.572178 0.813853
vt 0.653248 0.813267
vt 0.576624 0.828509
vt 0.656250 0.843750
vt 0.578125 0.843750
vn 0.000000 0.000000 1.000000
vn 0.000000 0.000000 1.000000
vn 0.000000 0.000000 1.000000
vn 0.000000 0.000000 1.000000
vn 0.000000 0.000000 1.000000
vn 0.000000 0.000000 1.000000
vn 0.000000 0.000000 1.000000
vn 0.000000 0.000000 1.000000
vn 0.000000 0.000000 1.000000
vn 0.000000 0.000000 1.000000
vn 0.000000 0.000000 1.000000
vn 0.000000 0.000000 1.000000
vn 0.000000 0.000000 1.000000
vn 0.000000 0.000000 1.000000
vn 0.000000 0.000000 1.000000
vn 0.000000 0.000000 1.000000
vn 0.000000 0.000000 1.000000
vn 0.000000 0.000000 1.000000
vn 0.000000 0.000000 1.000000
vn 0.000000 0.000000 1.000000
vn 0.000000 0.000000 1.000000
vn 0.000000 0.000000 1.000000
vn 0.000000 0.000000 1.000000
vn 0.000000 0.000000 1.000000
vn 0.000000 0.000000 1.000000
vn 0.000000 0.000000 1.000000
vn 0.000000 0.000000 1.000000
vn 0.000000 0.000000 1.000000
vn 0.000000 0.000000 1.000000
vn 0.000000 0.000000 1.000000
vn 0.000000 0.000000 1.000000
vn 0.000000 0.000000 1.000000
vn 0.000000 0.000000 1.000000
vn 0.000000 0.000000 1.000000
vn 0.000000 0.000000 1.000000
vn 0.000000 0.000000 1.000000
vn 0.000000 0.000000 1.000000
vn 0.000000 0.000000 1.000000
vn 0.000000 0.000000 1.000000
vn 0.000000 0.000000 1.000000
vn 0.000000 0.000000 1.000000
vn 0.000000 0.000000 1.000000
vn 0.000000 0.000000 1.000000
vn 0.000000 0.000000 1.000000
vn 0.000000 0.000000 1.000000
vn 0.000000 0.000000 1.000000
vn 0.000000 0.000000 1.000000
vn 0.000000 0.000000 1.000000
vn 0.000000 0.000000 1.000000
vn 0.000000 0.000000 1.000000
vn 0.000000 0.000000 1.000000
vn 0.000000 0.000000 1.000000
vn 0.000000 0.000000 1.000000
vn 0.000000 0.000000 1.000000
vn 0.000000 0.000000 1.000000
vn 0.000000 0.000000 1.000000
vn 0.000000 0.000000 1.000000
vn 0.000000 0.000000 1.000000
vn 0.000000 0.000000 1.000000
vn 0.000000 0.000000 1.000000
vn 0.000000 0.000000 1.000000
vn 0.000000 0.000000 1.000000
vn 0.000000 0.000000 1.000000
vn 0.000000 0.000000 1.000000
vn 0.000000 0.000000 1.000000
vn 0.000000 0.000000 1.000000
vn 0.000000 0.000000 1.000000
vn 0.000000 0.000000 1.000000
vn 0.000000 0.000000 1.000000
vn 0.000000 0.000000 1.000000
vn 0.000000 0.000000 1.000000
vn 0.000000 0.000000 1.000000
vn 0.000000 0.000000 1.000000
vn 0.000000 0.000000 1.000000
vn 0.000000 0.000000 1.000000
vn 0.000000 0.000000 1.000000
vn 0.000000 0.000000 1.000000
vn 0.000000 0.000000 1.000000
vn 0.000000 0.000000 1.000000
vn 0.000000 0.000000 1.000000
vn 0.000000 0.000000 1.000000
vn 0.000000 0.000000 1.000000
vn 0.000000 0.000000 1.000000
vn 0.000000 0.000000 1.000000
vn 0.000000 0.000000 1.000000
vn 0.000000 0.000000 1.000000
vn 0.000000 0.000000 1.000000
vn 0.000000 0.000000 1.000000
vn 0.000000 0.000000 1.000000
vn 0.000000 0.000000 1.000000
vn 0.000000 0.000000 1.000000
vn 0.000000 0.000000 1.000000
vn 0.000000 0.000000 1.000000
vn 0.000000 0.000000 1.000000
vn 0.000000 0.000000 1.000000
vn 0.000000 0.000000 1.000000
vn 0.000000 0.000000 1.000000
vn 0.000000 0.000000 1.000000
vn 0.000000 0.000000 1.000000
vn 0.000000 0.000000 1.000000
vn 0.000000 0.000000 1.000000
vn 0.000000 0.000000 1.000000
vn 0.000000 0.000000 1.000000
vn 0.000000 0.000000 1.000000
vn 0.000000 0.000000 1.000000
vn 0.000000 0.000000 1.000000
vn 0.000000 0.000000 1.000000
vn 0.000000 0.000000 1.000000
vn 0.000000 0.000000 1.000000
vn 0.000000 0.000000 1.000000
vn 0.000000 0.000000 1.000000
vn 0.000000 0.000000 1.000000
vn 0.000000 0.000000 1.000000
vn 0.000000 0.000000 1.000000
vn 0.000000 0.000000 1.000000
vn 0.000000 0.000000 1.000000
vn 0.000000 0.000000 1.000000
vn 0.000000 0.000000 1.000000
vn 0.000000 0.000000 1.000000
vn 0.000000 0.000000 1.000000
vn 0.000000 0.000000 1.000000
vn 0.000000 0.000000 1.000000
vn 0.000000 0.000000 1.000000
vn 0.000000 0.000000 1.000000
vn 0.000000 0.000000 1.000000
vn 0.000000 0.000000 1.000000
vn 0.000000 0.000000 1.000000
vn 0.000000 0.000000 1.000000
s off
g pCylinder1
usemtl initialShadingGroup
f 1/1/1 2/2/2 34/3/3 33/4/4
f 2/2/5 3/5/6 35/6/7 34/3/8
f 3/5/9 4/7/10 36/8/11 35/6/12
f 4/7/13 5/9/14 37/10/15 36/8/16
f 5/9/17 6/11/18 38/12/19 37/10/20
f 6/11/21 7/13/22 39/14/23 38/12/24
f 7/13/25 8/15/26 40/16/27 39/14/28
f 8/15/29 9/17/30 41/18/31 40/16/32
f 9/17/33 10/19/34 42/20/35 41/18/36
f 10/19/37 11/21/38 43/22/39 42/20/40
f 11/21/41 12/23/42 44/24/43 43/22/44
f 12/23/45 13/25/46 45/26/47 44/24/48
f 13/25/49 14/27/50 46/28/51 45/26/52
f 14/27/53 15/29/54 47/30/55 46/28/56
f 15/29/57 16/31/58 48/32/59 47/30/60
f 16/31/61 17/33/62 49/34/63 48/32/64
f 17/33/65 18/35/66 50/36/67 49/34/68
f 18/35/69 19/37/70 51/38/71 50/36/72
f 19/37/73 20/39/74 52/40/75 51/38/76
f 20/39/77 21/41/78 53/42/79 52/40/80
f 21/41/81 22/43/82 54/44/83 53/42/84
f 22/43/85 23/45/86 55/46/87 54/44/88
f 23/45/89 24/47/90 56/48/91 55/46/92
f 24/47/93 25/49/94 57/50/95 56/48/96
f 25/49/97 26/51/98 58/52/99 57/50/100
f 26/51/101 27/53/102 59/54/103 58/52/104
f 27/53/105 28/55/106 60/56/107 59/54/108
f 28/55/109 29/57/110 61/58/111 60/56/112
f 29/57/113 30/59/114 62/60/115 61/58/116
f 30/59/117 31/61/118 63/62/119 62/60/120
f 31/61/121 32/63/122 64/64/123 63/62/124
f 32/63/125 1/1/126 33/4/127 64/64/128
